<svg version="1.1" viewBox="0.0 0.0 600.0 371.0" fill="none" stroke="none" stroke-linecap="square" stroke-miterlimit="10" width="600" height="371" xmlns:xlink="http://www.w3.org/1999/xlink" xmlns="http://www.w3.org/2000/svg"><path fill="#ffffff" d="M0 0L600.0 0L600.0 371.0L0 371.0L0 0Z" fill-rule="nonzero"/><path fill="#34a853" d="M257.63333 41.7375C357.9531 41.7375 440.09586 97.56691 443.05273 167.76024L257.63333 171.5875Z" fill-rule="nonzero"/><path fill="#a16627" d="M443.13333 199.4125C443.13333 220.10753 436.06696 240.5028 422.52316 258.8985L422.52316 231.07349C436.06696 212.67781 443.13333 192.28252 443.13333 171.5875Z" fill-rule="nonzero"/><path fill="#e69138" d="M443.05273 167.76024C443.97867 189.74104 436.91467 211.5264 422.52316 231.07349L257.63333 171.5875Z" fill-rule="nonzero"/><path fill="#cc4125" d="M94.198326 110.16575C126.51687 68.02806 189.30962 41.7375 257.63333 41.7375L257.63333 171.5875Z" fill-rule="nonzero"/><path fill="#4c6fa5" d="M95.19399 262.1151C80.06685 242.91258 72.13333 221.34113 72.13333 199.4125L72.13333 171.5875C72.13333 193.51611 80.06685 215.08759 95.19399 234.29012Z" fill-rule="nonzero"/><path fill="#6d9eeb" d="M95.19399 234.29012C64.80373 195.71243 64.428856 148.97989 94.198326 110.16575L257.63333 171.5875Z" fill-rule="nonzero"/><path fill="#9d4747" d="M249.82378 329.14737C185.09471 327.23813 126.47842 301.82785 95.19399 262.1151L95.19399 234.29012C126.47842 274.00287 185.09471 299.41312 249.82378 301.3224Z" fill-rule="nonzero"/><path fill="#e06666" d="M249.82378 301.3224C185.09471 299.41312 126.47842 274.00287 95.19399 234.29012L257.63333 171.5875Z" fill-rule="nonzero"/><path fill="#a98823" d="M422.52316 258.8985C389.41818 303.86285 322.02347 331.27698 249.82378 329.14737L249.82378 301.3224C322.02347 303.452 389.41818 276.03787 422.52316 231.07349Z" fill-rule="nonzero"/><path fill="#f1c232" d="M422.52316 231.07349C389.41818 276.03787 322.02347 303.452 249.82378 301.3224L257.63333 171.5875Z" fill-rule="nonzero"/><path fill="#000000" d="M336.2352 109.39385L336.2352 110.58135L329.6102 110.58135Q329.59457 110.14385 329.75082 109.72198Q330.01645 109.0501 330.56332 108.39385Q331.12582 107.7376 332.1727 106.87823Q333.81332 105.53448 334.37582 104.75323Q334.95395 103.97198 334.95395 103.26885Q334.95395 102.53448 334.4227 102.03448Q333.90707 101.53448 333.07895 101.53448Q332.18832 101.53448 331.64145 102.06573Q331.1102 102.59698 331.1102 103.5501L329.84457 103.40948Q329.96957 102.00323 330.81332 101.26885Q331.6727 100.51885 333.09457 100.51885Q334.5477 100.51885 335.37582 101.31573Q336.21957 102.1126 336.21957 103.3001Q336.21957 103.90948 335.96957 104.4876Q335.7352 105.06573 335.15707 105.70635Q334.59457 106.34698 333.26645 107.47198Q332.15707 108.39385 331.84457 108.7376Q331.53207 109.06573 331.32895 109.39385L336.2352 109.39385ZM341.71957 110.58135L341.71957 108.1751L337.3602 108.1751L337.3602 107.0501L341.93832 100.56573L342.93832 100.56573L342.93832 107.0501L344.2977 107.0501L344.2977 108.1751L342.93832 108.1751L342.93832 110.58135L341.71957 110.58135ZM341.71957 107.0501L341.71957 102.53448L338.57895 107.0501L341.71957 107.0501ZM346.45395 110.58135L346.45395 109.1751L347.8602 109.1751L347.8602 110.58135L346.45395 110.58135ZM349.76645 107.95635L351.06332 107.84698Q351.20395 108.78448 351.71957 109.26885Q352.25082 109.7376 352.9852 109.7376Q353.87582 109.7376 354.4852 109.06573Q355.1102 108.39385 355.1102 107.3001Q355.1102 106.2376 354.51645 105.62823Q353.9227 105.01885 352.96957 105.01885Q352.37582 105.01885 351.89145 105.3001Q351.4227 105.56573 351.14145 105.9876L349.9852 105.84698L350.95395 100.69073L355.93832 100.69073L355.93832 101.87823L351.93832 101.87823L351.40707 104.56573Q352.31332 103.94073 353.2977 103.94073Q354.6102 103.94073 355.50082 104.84698Q356.40707 105.75323 356.40707 107.19073Q356.40707 108.5501 355.62582 109.53448Q354.65707 110.75323 352.9852 110.75323Q351.62582 110.75323 350.75082 109.9876Q349.89145 109.22198 349.76645 107.95635ZM358.00082 102.97198Q358.00082 101.89385 358.53207 101.14385Q359.07895 100.39385 360.1102 100.39385Q361.0477 100.39385 361.65707 101.06573Q362.28207 101.7376 362.28207 103.03448Q362.28207 104.31573 361.65707 105.00323Q361.03207 105.69073 360.12582 105.69073Q359.21957 105.69073 358.6102 105.01885Q358.00082 104.33135 358.00082 102.97198ZM360.14145 101.2376Q359.68832 101.2376 359.37582 101.64385Q359.07895 102.03448 359.07895 103.08135Q359.07895 104.0501 359.37582 104.44073Q359.68832 104.83135 360.14145 104.83135Q360.6102 104.83135 360.90707 104.44073Q361.21957 104.0501 361.21957 102.9876Q361.21957 102.01885 360.90707 101.62823Q360.59457 101.2376 360.14145 101.2376ZM360.14145 110.95635L365.62582 100.39385L366.62582 100.39385L361.1727 110.95635L360.14145 110.95635ZM364.4852 108.22198Q364.4852 107.14385 365.01645 106.40948Q365.56332 105.65948 366.59457 105.65948Q367.53207 105.65948 368.15707 106.33135Q368.78207 107.00323 368.78207 108.3001Q368.78207 109.58135 368.15707 110.26885Q367.53207 110.95635 366.59457 110.95635Q365.68832 110.95635 365.07895 110.28448Q364.4852 109.59698 364.4852 108.22198ZM366.62582 106.50323Q366.15707 106.50323 365.8602 106.90948Q365.56332 107.3001 365.56332 108.34698Q365.56332 109.31573 365.8602 109.70635Q366.1727 110.09698 366.62582 110.09698Q367.09457 110.09698 367.39145 109.70635Q367.70395 109.31573 367.70395 108.25323Q367.70395 107.28448 367.39145 106.89385Q367.09457 106.50323 366.62582 106.50323Z" fill-rule="nonzero"/><path fill="#000000" d="M381.67926 193.00888Q380.91364 192.72763 380.53864 192.212Q380.17926 191.69638 380.17926 190.962Q380.17926 189.86826 380.9605 189.13388Q381.7574 188.38388 383.05426 188.38388Q384.36676 188.38388 385.16364 189.1495Q385.97614 189.91513 385.97614 191.00888Q385.97614 191.69638 385.60114 192.212Q385.24176 192.72763 384.49176 193.00888Q385.41364 193.30576 385.898 193.97763Q386.3824 194.6495 386.3824 195.587Q386.3824 196.86826 385.47614 197.74326Q384.5699 198.61826 383.0855 198.61826Q381.60114 198.61826 380.67926 197.74326Q379.773 196.85263 379.773 195.54013Q379.773 194.57138 380.273 193.91513Q380.773 193.24326 381.67926 193.00888ZM381.4449 190.93076Q381.4449 191.63388 381.898 192.087Q382.35114 192.54013 383.0855 192.54013Q383.80426 192.54013 384.2574 192.10263Q384.7105 191.6495 384.7105 190.99326Q384.7105 190.32138 384.24176 189.86826Q383.773 189.3995 383.0699 189.3995Q382.36676 189.3995 381.898 189.85263Q381.4449 190.29013 381.4449 190.93076ZM381.03864 195.55576Q381.03864 196.087 381.28864 196.587Q381.53864 197.07138 382.023 197.337Q382.523 197.60263 383.10114 197.60263Q383.97614 197.60263 384.53864 197.04013Q385.11676 196.47763 385.11676 195.60263Q385.11676 194.712 384.523 194.13388Q383.9449 193.54013 383.05426 193.54013Q382.17926 193.54013 381.60114 194.11826Q381.03864 194.69638 381.03864 195.55576ZM388.47614 198.44638L388.47614 197.04013L389.8824 197.04013L389.8824 198.44638L388.47614 198.44638ZM391.78864 193.50888Q391.78864 191.72763 392.148 190.6495Q392.523 189.55576 393.24176 188.97763Q393.9605 188.38388 395.05426 188.38388Q395.86676 188.38388 396.47614 188.712Q397.0855 189.04013 397.47614 189.6495Q397.8824 190.25888 398.10114 191.13388Q398.3199 192.00888 398.3199 193.50888Q398.3199 195.2745 397.9605 196.35263Q397.60114 197.43076 396.8824 198.0245Q396.16364 198.61826 395.05426 198.61826Q393.61676 198.61826 392.78864 197.57138Q391.78864 196.32138 391.78864 193.50888ZM393.05426 193.50888Q393.05426 195.97763 393.6324 196.79013Q394.2105 197.60263 395.05426 197.60263Q395.91364 197.60263 396.49176 196.79013Q397.0699 195.962 397.0699 193.50888Q397.0699 191.0245 396.49176 190.212Q395.91364 189.3995 395.03864 189.3995Q394.1949 189.3995 393.6949 190.11826Q393.05426 191.04013 393.05426 193.50888ZM400.023 190.837Q400.023 189.75888 400.55426 189.00888Q401.10114 188.25888 402.1324 188.25888Q403.0699 188.25888 403.67926 188.93076Q404.30426 189.60263 404.30426 190.8995Q404.30426 192.18076 403.67926 192.86826Q403.05426 193.55576 402.148 193.55576Q401.24176 193.55576 400.6324 192.88388Q400.023 192.19638 400.023 190.837ZM402.16364 189.10263Q401.7105 189.10263 401.398 189.50888Q401.10114 189.8995 401.10114 190.94638Q401.10114 191.91513 401.398 192.30576Q401.7105 192.69638 402.16364 192.69638Q402.6324 192.69638 402.92926 192.30576Q403.24176 191.91513 403.24176 190.85263Q403.24176 189.88388 402.92926 189.49326Q402.61676 189.10263 402.16364 189.10263ZM402.16364 198.82138L407.648 188.25888L408.648 188.25888L403.1949 198.82138L402.16364 198.82138ZM406.5074 196.087Q406.5074 195.00888 407.03864 194.2745Q407.5855 193.5245 408.61676 193.5245Q409.55426 193.5245 410.17926 194.19638Q410.80426 194.86826 410.80426 196.16513Q410.80426 197.44638 410.17926 198.13388Q409.55426 198.82138 408.61676 198.82138Q407.7105 198.82138 407.10114 198.1495Q406.5074 197.462 406.5074 196.087ZM408.648 194.36826Q408.17926 194.36826 407.8824 194.7745Q407.5855 195.16513 407.5855 196.212Q407.5855 197.18076 407.8824 197.57138Q408.1949 197.962 408.648 197.962Q409.11676 197.962 409.41364 197.57138Q409.72614 197.18076 409.72614 196.11826Q409.72614 195.1495 409.41364 194.75888Q409.11676 194.36826 408.648 194.36826Z" fill-rule="nonzero"/><path fill="#000000" d="M309.56845 256.9549L308.33408 256.9549L308.33408 249.11115Q307.89658 249.53302 307.1622 249.97052Q306.44345 250.3924 305.88095 250.59552L305.88095 249.40802Q306.9122 248.92365 307.67783 248.23615Q308.45908 247.54865 308.77158 246.8924L309.56845 246.8924L309.56845 256.9549ZM314.81845 251.5174Q314.05283 251.23615 313.67783 250.72052Q313.31845 250.2049 313.31845 249.47052Q313.31845 248.37677 314.0997 247.6424Q314.89658 246.8924 316.19345 246.8924Q317.50595 246.8924 318.30283 247.65802Q319.11533 248.42365 319.11533 249.5174Q319.11533 250.2049 318.74033 250.72052Q318.38095 251.23615 317.63095 251.5174Q318.55283 251.81427 319.0372 252.48615Q319.52158 253.15802 319.52158 254.09552Q319.52158 255.37677 318.61533 256.25177Q317.70908 257.12677 316.2247 257.12677Q314.74033 257.12677 313.81845 256.25177Q312.9122 255.36115 312.9122 254.04865Q312.9122 253.0799 313.4122 252.42365Q313.9122 251.75177 314.81845 251.5174ZM314.58408 249.43927Q314.58408 250.1424 315.0372 250.59552Q315.49033 251.04865 316.2247 251.04865Q316.94345 251.04865 317.39658 250.61115Q317.8497 250.15802 317.8497 249.50177Q317.8497 248.8299 317.38095 248.37677Q316.9122 247.90802 316.20908 247.90802Q315.50595 247.90802 315.0372 248.36115Q314.58408 248.79865 314.58408 249.43927ZM314.17783 254.06427Q314.17783 254.59552 314.42783 255.09552Q314.67783 255.5799 315.1622 255.84552Q315.6622 256.11115 316.24033 256.11115Q317.11533 256.11115 317.67783 255.54865Q318.25595 254.98615 318.25595 254.11115Q318.25595 253.22052 317.6622 252.6424Q317.08408 252.04865 316.19345 252.04865Q315.31845 252.04865 314.74033 252.62677Q314.17783 253.2049 314.17783 254.06427ZM321.61533 256.9549L321.61533 255.54865L323.02158 255.54865L323.02158 256.9549L321.61533 256.9549ZM329.56845 256.9549L328.33408 256.9549L328.33408 249.11115Q327.89658 249.53302 327.1622 249.97052Q326.44345 250.3924 325.88095 250.59552L325.88095 249.40802Q326.9122 248.92365 327.67783 248.23615Q328.45908 247.54865 328.77158 246.8924L329.56845 246.8924L329.56845 256.9549ZM333.1622 249.34552Q333.1622 248.2674 333.69345 247.5174Q334.24033 246.7674 335.27158 246.7674Q336.20908 246.7674 336.81845 247.43927Q337.44345 248.11115 337.44345 249.40802Q337.44345 250.68927 336.81845 251.37677Q336.19345 252.06427 335.2872 252.06427Q334.38095 252.06427 333.77158 251.3924Q333.1622 250.7049 333.1622 249.34552ZM335.30283 247.61115Q334.8497 247.61115 334.5372 248.0174Q334.24033 248.40802 334.24033 249.4549Q334.24033 250.42365 334.5372 250.81427Q334.8497 251.2049 335.30283 251.2049Q335.77158 251.2049 336.06845 250.81427Q336.38095 250.42365 336.38095 249.36115Q336.38095 248.3924 336.06845 248.00177Q335.75595 247.61115 335.30283 247.61115ZM335.30283 257.3299L340.7872 246.7674L341.7872 246.7674L336.33408 257.3299L335.30283 257.3299ZM339.64658 254.59552Q339.64658 253.5174 340.17783 252.78302Q340.7247 252.03302 341.75595 252.03302Q342.69345 252.03302 343.31845 252.7049Q343.94345 253.37677 343.94345 254.67365Q343.94345 255.9549 343.31845 256.6424Q342.69345 257.3299 341.75595 257.3299Q340.8497 257.3299 340.24033 256.65802Q339.64658 255.97052 339.64658 254.59552ZM341.7872 252.87677Q341.31845 252.87677 341.02158 253.28302Q340.7247 253.67365 340.7247 254.72052Q340.7247 255.68927 341.02158 256.0799Q341.33408 256.47052 341.7872 256.47052Q342.25595 256.47052 342.55283 256.0799Q342.86533 255.68927 342.86533 254.62677Q342.86533 253.65802 342.55283 253.2674Q342.25595 252.87677 341.7872 252.87677Z" fill-rule="nonzero"/><path fill="#000000" d="M173.08263 255.45003L171.84825 255.45003L171.84825 247.60628Q171.41075 248.02815 170.67638 248.46565Q169.95763 248.88753 169.39513 249.09065L169.39513 247.90315Q170.42638 247.41878 171.192 246.73128Q171.97325 246.04378 172.28575 245.38753L173.08263 245.38753L173.08263 255.45003ZM182.83263 247.88753L181.61388 247.98128Q181.442 247.2469 181.14513 246.91878Q180.64513 246.40315 179.91075 246.40315Q179.317 246.40315 178.8795 246.73128Q178.30138 247.15315 177.95763 247.96565Q177.6295 248.77815 177.61388 250.27815Q178.05138 249.60628 178.692 249.27815Q179.34825 248.95003 180.05138 248.95003Q181.28575 248.95003 182.14513 249.85628Q183.0045 250.76253 183.0045 252.20003Q183.0045 253.13753 182.59825 253.95003Q182.192 254.76253 181.47325 255.20003Q180.77013 255.6219 179.86388 255.6219Q178.33263 255.6219 177.36388 254.4969Q176.39513 253.35628 176.39513 250.76253Q176.39513 247.85628 177.45763 246.52815Q178.39513 245.38753 179.98888 245.38753Q181.17638 245.38753 181.92638 246.0594Q182.67638 246.71565 182.83263 247.88753ZM177.80138 252.20003Q177.80138 252.84065 178.067 253.41878Q178.34825 253.9969 178.83263 254.3094Q179.317 254.60628 179.84825 254.60628Q180.6295 254.60628 181.192 253.98128Q181.7545 253.35628 181.7545 252.27815Q181.7545 251.23128 181.192 250.63753Q180.64513 250.02815 179.80138 250.02815Q178.97325 250.02815 178.3795 250.63753Q177.80138 251.23128 177.80138 252.20003ZM185.1295 255.45003L185.1295 254.04378L186.53575 254.04378L186.53575 255.45003L185.1295 255.45003ZM188.45763 252.8094L189.67638 252.63753Q189.89513 253.6844 190.39513 254.15315Q190.91075 254.60628 191.64513 254.60628Q192.52013 254.60628 193.11388 254.01253Q193.70763 253.40315 193.70763 252.51253Q193.70763 251.66878 193.14513 251.1219Q192.59825 250.57503 191.7545 250.57503Q191.39513 250.57503 190.8795 250.70003L191.02013 249.6219Q191.14513 249.63753 191.20763 249.63753Q192.0045 249.63753 192.6295 249.23128Q193.2545 248.82503 193.2545 247.96565Q193.2545 247.29378 192.80138 246.85628Q192.34825 246.40315 191.61388 246.40315Q190.89513 246.40315 190.41075 246.85628Q189.942 247.29378 189.80138 248.20003L188.58263 247.98128Q188.80138 246.7469 189.59825 246.07503Q190.39513 245.38753 191.58263 245.38753Q192.41075 245.38753 193.09825 245.7469Q193.78575 246.09065 194.14513 246.70003Q194.52013 247.3094 194.52013 247.9969Q194.52013 248.63753 194.17638 249.16878Q193.83263 249.70003 193.14513 250.02815Q194.03575 250.23128 194.52013 250.8719Q195.02013 251.51253 195.02013 252.4969Q195.02013 253.8094 194.05138 254.71565Q193.09825 255.6219 191.64513 255.6219Q190.317 255.6219 189.442 254.84065Q188.58263 254.0594 188.45763 252.8094ZM196.67638 247.84065Q196.67638 246.76253 197.20763 246.01253Q197.7545 245.26253 198.78575 245.26253Q199.72325 245.26253 200.33263 245.9344Q200.95763 246.60628 200.95763 247.90315Q200.95763 249.1844 200.33263 249.8719Q199.70763 250.5594 198.80138 250.5594Q197.89513 250.5594 197.28575 249.88753Q196.67638 249.20003 196.67638 247.84065ZM198.817 246.10628Q198.36388 246.10628 198.05138 246.51253Q197.7545 246.90315 197.7545 247.95003Q197.7545 248.91878 198.05138 249.3094Q198.36388 249.70003 198.817 249.70003Q199.28575 249.70003 199.58263 249.3094Q199.89513 248.91878 199.89513 247.85628Q199.89513 246.88753 199.58263 246.4969Q199.27013 246.10628 198.817 246.10628ZM198.817 255.82503L204.30138 245.26253L205.30138 245.26253L199.84825 255.82503L198.817 255.82503ZM203.16075 253.09065Q203.16075 252.01253 203.692 251.27815Q204.23888 250.52815 205.27013 250.52815Q206.20763 250.52815 206.83263 251.20003Q207.45763 251.8719 207.45763 253.16878Q207.45763 254.45003 206.83263 255.13753Q206.20763 255.82503 205.27013 255.82503Q204.36388 255.82503 203.7545 255.15315Q203.16075 254.46565 203.16075 253.09065ZM205.30138 251.3719Q204.83263 251.3719 204.53575 251.77815Q204.23888 252.16878 204.23888 253.21565Q204.23888 254.1844 204.53575 254.57503Q204.84825 254.96565 205.30138 254.96565Q205.77013 254.96565 206.067 254.57503Q206.3795 254.1844 206.3795 253.1219Q206.3795 252.15315 206.067 251.76253Q205.77013 251.3719 205.30138 251.3719Z" fill-rule="nonzero"/><path fill="#000000" d="M99.990456 177.14902L98.75608 177.14902L98.75608 169.30527Q98.31858 169.72714 97.584206 170.16464Q96.865456 170.58652 96.302956 170.78964L96.302956 169.60214Q97.334206 169.11777 98.09983 168.43027Q98.88108 167.74277 99.19358 167.08652L99.990456 167.08652L99.990456 177.14902ZM103.34983 174.52402L104.646706 174.41464Q104.78733 175.35214 105.302956 175.83652Q105.834206 176.30527 106.56858 176.30527Q107.459206 176.30527 108.06858 175.63339Q108.69358 174.96152 108.69358 173.86777Q108.69358 172.80527 108.09983 172.19589Q107.50608 171.58652 106.552956 171.58652Q105.959206 171.58652 105.47483 171.86777Q105.00608 172.13339 104.72483 172.55527L103.56858 172.41464L104.53733 167.25839L109.521706 167.25839L109.521706 168.44589L105.521706 168.44589L104.990456 171.13339Q105.896706 170.50839 106.88108 170.50839Q108.19358 170.50839 109.084206 171.41464Q109.990456 172.32089 109.990456 173.75839Q109.990456 175.11777 109.209206 176.10214Q108.240456 177.32089 106.56858 177.32089Q105.209206 177.32089 104.334206 176.55527Q103.47483 175.78964 103.34983 174.52402ZM112.03733 177.14902L112.03733 175.74277L113.44358 175.74277L113.44358 177.14902L112.03733 177.14902ZM115.53733 174.83652L116.72483 174.72714Q116.865456 175.55527 117.28733 175.93027Q117.72483 176.30527 118.38108 176.30527Q118.94358 176.30527 119.365456 176.05527Q119.802956 175.78964 120.06858 175.35214Q120.34983 174.91464 120.53733 174.18027Q120.72483 173.44589 120.72483 172.68027Q120.72483 172.60214 120.709206 172.43027Q120.34983 173.02402 119.709206 173.39902Q119.06858 173.75839 118.31858 173.75839Q117.06858 173.75839 116.209206 172.85214Q115.34983 171.94589 115.34983 170.47714Q115.34983 168.94589 116.240456 168.02402Q117.146706 167.08652 118.50608 167.08652Q119.47483 167.08652 120.28733 167.61777Q121.09983 168.13339 121.521706 169.11777Q121.94358 170.08652 121.94358 171.93027Q121.94358 173.85214 121.521706 174.99277Q121.115456 176.13339 120.28733 176.72714Q119.459206 177.32089 118.34983 177.32089Q117.177956 177.32089 116.427956 176.66464Q115.69358 176.00839 115.53733 174.83652ZM120.56858 170.41464Q120.56858 169.35214 120.00608 168.72714Q119.44358 168.10214 118.66233 168.10214Q117.834206 168.10214 117.22483 168.77402Q116.615456 169.44589 116.615456 170.50839Q116.615456 171.46152 117.19358 172.07089Q117.771706 172.66464 118.615456 172.66464Q119.47483 172.66464 120.021706 172.07089Q120.56858 171.46152 120.56858 170.41464ZM123.584206 169.53964Q123.584206 168.46152 124.115456 167.71152Q124.66233 166.96152 125.69358 166.96152Q126.63108 166.96152 127.240456 167.63339Q127.865456 168.30527 127.865456 169.60214Q127.865456 170.88339 127.240456 171.57089Q126.615456 172.25839 125.709206 172.25839Q124.802956 172.25839 124.19358 171.58652Q123.584206 170.89902 123.584206 169.53964ZM125.72483 167.80527Q125.271706 167.80527 124.959206 168.21152Q124.66233 168.60214 124.66233 169.64902Q124.66233 170.61777 124.959206 171.00839Q125.271706 171.39902 125.72483 171.39902Q126.19358 171.39902 126.490456 171.00839Q126.802956 170.61777 126.802956 169.55527Q126.802956 168.58652 126.490456 168.19589Q126.177956 167.80527 125.72483 167.80527ZM125.72483 177.52402L131.2092 166.96152L132.2092 166.96152L126.75608 177.52402L125.72483 177.52402ZM130.06857 174.78964Q130.06857 173.71152 130.59982 172.97714Q131.1467 172.22714 132.17795 172.22714Q133.11545 172.22714 133.74045 172.89902Q134.36545 173.57089 134.36545 174.86777Q134.36545 176.14902 133.74045 176.83652Q133.11545 177.52402 132.17795 177.52402Q131.2717 177.52402 130.66232 176.85214Q130.06857 176.16464 130.06857 174.78964ZM132.2092 173.07089Q131.74045 173.07089 131.44357 173.47714Q131.1467 173.86777 131.1467 174.91464Q131.1467 175.88339 131.44357 176.27402Q131.75607 176.66464 132.2092 176.66464Q132.67795 176.66464 132.97482 176.27402Q133.28732 175.88339 133.28732 174.82089Q133.28732 173.85214 132.97482 173.46152Q132.67795 173.07089 132.2092 173.07089Z" fill-rule="nonzero"/><path fill="#000000" d="M174.75546 96.89246L173.52109 96.89246L173.52109 89.04871Q173.08359 89.47059 172.34921 89.90809Q171.63046 90.32996 171.06796 90.53309L171.06796 89.34559Q172.09921 88.86121 172.86484 88.17371Q173.64609 87.48621 173.95859 86.82996L174.75546 86.82996L174.75546 96.89246ZM178.19296 88.18934L178.19296 87.00184L184.69296 87.00184L184.69296 87.95496Q183.72421 88.97059 182.78671 90.65809Q181.84921 92.34559 181.33359 94.14246Q180.97421 95.39246 180.86484 96.89246L179.59921 96.89246Q179.61484 95.70496 180.05234 94.03309Q180.50546 92.36121 181.33359 90.81434Q182.17734 89.25184 183.11484 88.18934L178.19296 88.18934ZM186.80234 96.89246L186.80234 95.48621L188.20859 95.48621L188.20859 96.89246L186.80234 96.89246ZM196.58359 95.70496L196.58359 96.89246L189.95859 96.89246Q189.94296 96.45496 190.09921 96.03309Q190.36484 95.36121 190.91171 94.70496Q191.47421 94.04871 192.52109 93.18934Q194.16171 91.84559 194.72421 91.06434Q195.30234 90.28309 195.30234 89.57996Q195.30234 88.84559 194.77109 88.34559Q194.25546 87.84559 193.42734 87.84559Q192.53671 87.84559 191.98984 88.37684Q191.45859 88.90809 191.45859 89.86121L190.19296 89.72059Q190.31796 88.31434 191.16171 87.57996Q192.02109 86.82996 193.44296 86.82996Q194.89609 86.82996 195.72421 87.62684Q196.56796 88.42371 196.56796 89.61121Q196.56796 90.22059 196.31796 90.79871Q196.08359 91.37684 195.50546 92.01746Q194.94296 92.65809 193.61484 93.78309Q192.50546 94.70496 192.19296 95.04871Q191.88046 95.37684 191.67734 95.70496L196.58359 95.70496ZM198.34921 89.28309Q198.34921 88.20496 198.88046 87.45496Q199.42734 86.70496 200.45859 86.70496Q201.39609 86.70496 202.00546 87.37684Q202.63046 88.04871 202.63046 89.34559Q202.63046 90.62684 202.00546 91.31434Q201.38046 92.00184 200.47421 92.00184Q199.56796 92.00184 198.95859 91.32996Q198.34921 90.64246 198.34921 89.28309ZM200.48984 87.54871Q200.03671 87.54871 199.72421 87.95496Q199.42734 88.34559 199.42734 89.39246Q199.42734 90.36121 199.72421 90.75184Q200.03671 91.14246 200.48984 91.14246Q200.95859 91.14246 201.25546 90.75184Q201.56796 90.36121 201.56796 89.29871Q201.56796 88.32996 201.25546 87.93934Q200.94296 87.54871 200.48984 87.54871ZM200.48984 97.26746L205.97421 86.70496L206.97421 86.70496L201.52109 97.26746L200.48984 97.26746ZM204.83359 94.53309Q204.83359 93.45496 205.36484 92.72059Q205.91171 91.97059 206.94296 91.97059Q207.88046 91.97059 208.50546 92.64246Q209.13046 93.31434 209.13046 94.61121Q209.13046 95.89246 208.50546 96.57996Q207.88046 97.26746 206.94296 97.26746Q206.03671 97.26746 205.42734 96.59559Q204.83359 95.90809 204.83359 94.53309ZM206.97421 92.81434Q206.50546 92.81434 206.20859 93.22059Q205.91171 93.61121 205.91171 94.65809Q205.91171 95.62684 206.20859 96.01746Q206.52109 96.40809 206.97421 96.40809Q207.44296 96.40809 207.73984 96.01746Q208.05234 95.62684 208.05234 94.56434Q208.05234 93.59559 207.73984 93.20496Q207.44296 92.81434 206.97421 92.81434Z" fill-rule="nonzero"/><path fill="#34a853" d="M517.0 29.0C517.0 32.31371 514.3137 35.0 511.0 35.0C507.68628 35.0 505.0 32.31371 505.0 29.0C505.0 25.68629 507.68628 23.0 511.0 23.0C514.3137 23.0 517.0 25.68629 517.0 29.0Z" fill-rule="nonzero"/><path fill="#1a1a1a" d="M529.9531 29.625L529.9531 28.625L533.5781 28.609375L533.5781 31.796875Q532.75 32.46875 531.8594 32.8125Q530.96875 33.140625 530.03125 33.140625Q528.7656 33.140625 527.71875 32.609375Q526.6875 32.0625 526.15625 31.046875Q525.6406 30.015625 525.6406 28.75Q525.6406 27.484375 526.15625 26.40625Q526.6875 25.3125 527.6719 24.796875Q528.65625 24.265625 529.9375 24.265625Q530.875 24.265625 531.625 24.5625Q532.375 24.859375 532.7969 25.40625Q533.2344 25.9375 533.4531 26.8125L532.4375 27.09375Q532.2344 26.4375 531.9375 26.0625Q531.65625 25.6875 531.125 25.46875Q530.59375 25.234375 529.9531 25.234375Q529.1719 25.234375 528.59375 25.46875Q528.03125 25.703125 527.6719 26.09375Q527.3281 26.484375 527.1406 26.953125Q526.8125 27.75 526.8125 28.671875Q526.8125 29.828125 527.2031 30.609375Q527.6094 31.375 528.3594 31.75Q529.1094 32.125 529.96875 32.125Q530.7031 32.125 531.40625 31.84375Q532.1094 31.546875 532.46875 31.234375L532.46875 29.625L529.9531 29.625ZM534.78125 33.0L534.78125 26.78125L535.7344 26.78125L535.7344 27.71875Q536.09375 27.0625 536.3906 26.859375Q536.7031 26.640625 537.0781 26.640625Q537.6094 26.640625 538.15625 26.96875L537.7969 27.953125Q537.40625 27.71875 537.03125 27.71875Q536.6719 27.71875 536.3906 27.9375Q536.125 28.140625 536.0156 28.515625Q535.8281 29.078125 535.8281 29.734375L535.8281 33.0L534.78125 33.0ZM538.40625 29.890625Q538.40625 28.15625 539.3594 27.328125Q540.15625 26.640625 541.3125 26.640625Q542.59375 26.640625 543.40625 27.484375Q544.2344 28.3125 544.2344 29.796875Q544.2344 31.0 543.875 31.6875Q543.5156 32.375 542.8125 32.765625Q542.125 33.140625 541.3125 33.140625Q540.0156 33.140625 539.2031 32.3125Q538.40625 31.46875 538.40625 29.890625ZM539.4844 29.890625Q539.4844 31.078125 540.0 31.671875Q540.53125 32.265625 541.3125 32.265625Q542.1094 32.265625 542.625 31.671875Q543.1406 31.078125 543.1406 29.859375Q543.1406 28.703125 542.6094 28.109375Q542.09375 27.515625 541.3125 27.515625Q540.53125 27.515625 540.0 28.109375Q539.4844 28.6875 539.4844 29.890625ZM549.875 33.0L549.875 32.078125Q549.1406 33.140625 547.8906 33.140625Q547.34375 33.140625 546.8594 32.9375Q546.3906 32.71875 546.15625 32.40625Q545.9219 32.078125 545.8281 31.609375Q545.7656 31.3125 545.7656 30.625L545.7656 26.78125L546.8281 26.78125L546.8281 30.234375Q546.8281 31.046875 546.8906 31.34375Q546.9844 31.75 547.2969 32.0Q547.625 32.234375 548.1094 32.234375Q548.5781 32.234375 548.9844 32.0Q549.40625 31.75 549.5781 31.328125Q549.7656 30.90625 549.7656 30.109375L549.7656 26.78125L550.8125 26.78125L550.8125 33.0L549.875 33.0ZM552.7969 35.390625L552.7969 26.78125L553.75 26.78125L553.75 27.578125Q554.09375 27.109375 554.5156 26.875Q554.9531 26.640625 555.5625 26.640625Q556.3594 26.640625 556.96875 27.046875Q557.5781 27.453125 557.875 28.203125Q558.1875 28.953125 558.1875 29.84375Q558.1875 30.796875 557.84375 31.5625Q557.5156 32.328125 556.8594 32.734375Q556.2031 33.140625 555.4844 33.140625Q554.9531 33.140625 554.53125 32.921875Q554.1094 32.6875 553.84375 32.359375L553.84375 35.390625L552.7969 35.390625ZM553.75 29.921875Q553.75 31.125 554.2344 31.703125Q554.71875 32.265625 555.40625 32.265625Q556.1094 32.265625 556.6094 31.671875Q557.1094 31.078125 557.1094 29.828125Q557.1094 28.640625 556.625 28.0625Q556.1406 27.46875 555.4531 27.46875Q554.78125 27.46875 554.2656 28.09375Q553.75 28.71875 553.75 29.921875ZM563.46875 33.0L562.4219 33.0L562.4219 26.28125Q562.03125 26.640625 561.40625 27.015625Q560.7969 27.375 560.3125 27.546875L560.3125 26.53125Q561.1875 26.109375 561.84375 25.53125Q562.5156 24.9375 562.7969 24.375L563.46875 24.375L563.46875 33.0Z" fill-rule="nonzero"/><path fill="#e69138" d="M517.0 53.0C517.0 56.31371 514.3137 59.0 511.0 59.0C507.68628 59.0 505.0 56.31371 505.0 53.0C505.0 49.68629 507.68628 47.0 511.0 47.0C514.3137 47.0 517.0 49.68629 517.0 53.0Z" fill-rule="nonzero"/><path fill="#1a1a1a" d="M529.9531 53.625L529.9531 52.625L533.5781 52.609375L533.5781 55.796875Q532.75 56.46875 531.8594 56.8125Q530.96875 57.140625 530.03125 57.140625Q528.7656 57.140625 527.71875 56.609375Q526.6875 56.0625 526.15625 55.046875Q525.6406 54.015625 525.6406 52.75Q525.6406 51.484375 526.15625 50.40625Q526.6875 49.3125 527.6719 48.796875Q528.65625 48.265625 529.9375 48.265625Q530.875 48.265625 531.625 48.5625Q532.375 48.859375 532.7969 49.40625Q533.2344 49.9375 533.4531 50.8125L532.4375 51.09375Q532.2344 50.4375 531.9375 50.0625Q531.65625 49.6875 531.125 49.46875Q530.59375 49.234375 529.9531 49.234375Q529.1719 49.234375 528.59375 49.46875Q528.03125 49.703125 527.6719 50.09375Q527.3281 50.484375 527.1406 50.953125Q526.8125 51.75 526.8125 52.671875Q526.8125 53.828125 527.2031 54.609375Q527.6094 55.375 528.3594 55.75Q529.1094 56.125 529.96875 56.125Q530.7031 56.125 531.40625 55.84375Q532.1094 55.546875 532.46875 55.234375L532.46875 53.625L529.9531 53.625ZM534.78125 57.0L534.78125 50.78125L535.7344 50.78125L535.7344 51.71875Q536.09375 51.0625 536.3906 50.859375Q536.7031 50.640625 537.0781 50.640625Q537.6094 50.640625 538.15625 50.96875L537.7969 51.953125Q537.40625 51.71875 537.03125 51.71875Q536.6719 51.71875 536.3906 51.9375Q536.125 52.140625 536.0156 52.515625Q535.8281 53.078125 535.8281 53.734375L535.8281 57.0L534.78125 57.0ZM538.40625 53.890625Q538.40625 52.15625 539.3594 51.328125Q540.15625 50.640625 541.3125 50.640625Q542.59375 50.640625 543.40625 51.484375Q544.2344 52.3125 544.2344 53.796875Q544.2344 55.0 543.875 55.6875Q543.5156 56.375 542.8125 56.765625Q542.125 57.140625 541.3125 57.140625Q540.0156 57.140625 539.2031 56.3125Q538.40625 55.46875 538.40625 53.890625ZM539.4844 53.890625Q539.4844 55.078125 540.0 55.671875Q540.53125 56.265625 541.3125 56.265625Q542.1094 56.265625 542.625 55.671875Q543.1406 55.078125 543.1406 53.859375Q543.1406 52.703125 542.6094 52.109375Q542.09375 51.515625 541.3125 51.515625Q540.53125 51.515625 540.0 52.109375Q539.4844 52.6875 539.4844 53.890625ZM549.875 57.0L549.875 56.078125Q549.1406 57.140625 547.8906 57.140625Q547.34375 57.140625 546.8594 56.9375Q546.3906 56.71875 546.15625 56.40625Q545.9219 56.078125 545.8281 55.609375Q545.7656 55.3125 545.7656 54.625L545.7656 50.78125L546.8281 50.78125L546.8281 54.234375Q546.8281 55.046875 546.8906 55.34375Q546.9844 55.75 547.2969 56.0Q547.625 56.234375 548.1094 56.234375Q548.5781 56.234375 548.9844 56.0Q549.40625 55.75 549.5781 55.328125Q549.7656 54.90625 549.7656 54.109375L549.7656 50.78125L550.8125 50.78125L550.8125 57.0L549.875 57.0ZM552.7969 59.390625L552.7969 50.78125L553.75 50.78125L553.75 51.578125Q554.09375 51.109375 554.5156 50.875Q554.9531 50.640625 555.5625 50.640625Q556.3594 50.640625 556.96875 51.046875Q557.5781 51.453125 557.875 52.203125Q558.1875 52.953125 558.1875 53.84375Q558.1875 54.796875 557.84375 55.5625Q557.5156 56.328125 556.8594 56.734375Q556.2031 57.140625 555.4844 57.140625Q554.9531 57.140625 554.53125 56.921875Q554.1094 56.6875 553.84375 56.359375L553.84375 59.390625L552.7969 59.390625ZM553.75 53.921875Q553.75 55.125 554.2344 55.703125Q554.71875 56.265625 555.40625 56.265625Q556.1094 56.265625 556.6094 55.671875Q557.1094 55.078125 557.1094 53.828125Q557.1094 52.640625 556.625 52.0625Q556.1406 51.46875 555.4531 51.46875Q554.78125 51.46875 554.2656 52.09375Q553.75 52.71875 553.75 53.921875ZM565.0469 55.984375L565.0469 57.0L559.3594 57.0Q559.3594 56.625 559.4844 56.265625Q559.7031 55.6875 560.1719 55.125Q560.65625 54.5625 561.5625 53.828125Q562.96875 52.671875 563.4531 52.0Q563.9531 51.328125 563.9531 50.734375Q563.9531 50.109375 563.5 49.6875Q563.0469 49.25 562.3281 49.25Q561.5625 49.25 561.1094 49.703125Q560.65625 50.15625 560.6406 50.96875L559.5625 50.859375Q559.6719 49.640625 560.3906 49.015625Q561.125 48.375 562.3594 48.375Q563.59375 48.375 564.3125 49.0625Q565.03125 49.75 565.03125 50.765625Q565.03125 51.28125 564.8125 51.78125Q564.6094 52.265625 564.1094 52.828125Q563.625 53.375 562.5 54.328125Q561.5469 55.125 561.2656 55.421875Q561.0 55.703125 560.8281 55.984375L565.0469 55.984375Z" fill-rule="nonzero"/><path fill="#f1c232" d="M517.0 77.0C517.0 80.313705 514.3137 83.0 511.0 83.0C507.68628 83.0 505.0 80.313705 505.0 77.0C505.0 73.686295 507.68628 71.0 511.0 71.0C514.3137 71.0 517.0 73.686295 517.0 77.0Z" fill-rule="nonzero"/><path fill="#1a1a1a" d="M529.9531 77.625L529.9531 76.625L533.5781 76.609375L533.5781 79.796875Q532.75 80.46875 531.8594 80.8125Q530.96875 81.140625 530.03125 81.140625Q528.7656 81.140625 527.71875 80.609375Q526.6875 80.0625 526.15625 79.046875Q525.6406 78.015625 525.6406 76.75Q525.6406 75.484375 526.15625 74.40625Q526.6875 73.3125 527.6719 72.796875Q528.65625 72.265625 529.9375 72.265625Q530.875 72.265625 531.625 72.5625Q532.375 72.859375 532.7969 73.40625Q533.2344 73.9375 533.4531 74.8125L532.4375 75.09375Q532.2344 74.4375 531.9375 74.0625Q531.65625 73.6875 531.125 73.46875Q530.59375 73.234375 529.9531 73.234375Q529.1719 73.234375 528.59375 73.46875Q528.03125 73.703125 527.6719 74.09375Q527.3281 74.484375 527.1406 74.953125Q526.8125 75.75 526.8125 76.671875Q526.8125 77.828125 527.2031 78.609375Q527.6094 79.375 528.3594 79.75Q529.1094 80.125 529.96875 80.125Q530.7031 80.125 531.40625 79.84375Q532.1094 79.546875 532.46875 79.234375L532.46875 77.625L529.9531 77.625ZM534.78125 81.0L534.78125 74.78125L535.7344 74.78125L535.7344 75.71875Q536.09375 75.0625 536.3906 74.859375Q536.7031 74.640625 537.0781 74.640625Q537.6094 74.640625 538.15625 74.96875L537.7969 75.953125Q537.40625 75.71875 537.03125 75.71875Q536.6719 75.71875 536.3906 75.9375Q536.125 76.140625 536.0156 76.515625Q535.8281 77.078125 535.8281 77.734375L535.8281 81.0L534.78125 81.0ZM538.40625 77.890625Q538.40625 76.15625 539.3594 75.328125Q540.15625 74.640625 541.3125 74.640625Q542.59375 74.640625 543.40625 75.484375Q544.2344 76.3125 544.2344 77.796875Q544.2344 79.0 543.875 79.6875Q543.5156 80.375 542.8125 80.765625Q542.125 81.140625 541.3125 81.140625Q540.0156 81.140625 539.2031 80.3125Q538.40625 79.46875 538.40625 77.890625ZM539.4844 77.890625Q539.4844 79.078125 540.0 79.671875Q540.53125 80.265625 541.3125 80.265625Q542.1094 80.265625 542.625 79.671875Q543.1406 79.078125 543.1406 77.859375Q543.1406 76.703125 542.6094 76.109375Q542.09375 75.515625 541.3125 75.515625Q540.53125 75.515625 540.0 76.109375Q539.4844 76.6875 539.4844 77.890625ZM549.875 81.0L549.875 80.078125Q549.1406 81.140625 547.8906 81.140625Q547.34375 81.140625 546.8594 80.9375Q546.3906 80.71875 546.15625 80.40625Q545.9219 80.078125 545.8281 79.609375Q545.7656 79.3125 545.7656 78.625L545.7656 74.78125L546.8281 74.78125L546.8281 78.234375Q546.8281 79.046875 546.8906 79.34375Q546.9844 79.75 547.2969 80.0Q547.625 80.234375 548.1094 80.234375Q548.5781 80.234375 548.9844 80.0Q549.40625 79.75 549.5781 79.328125Q549.7656 78.90625 549.7656 78.109375L549.7656 74.78125L550.8125 74.78125L550.8125 81.0L549.875 81.0ZM552.7969 83.390625L552.7969 74.78125L553.75 74.78125L553.75 75.578125Q554.09375 75.109375 554.5156 74.875Q554.9531 74.640625 555.5625 74.640625Q556.3594 74.640625 556.96875 75.046875Q557.5781 75.453125 557.875 76.203125Q558.1875 76.953125 558.1875 77.84375Q558.1875 78.796875 557.84375 79.5625Q557.5156 80.328125 556.8594 80.734375Q556.2031 81.140625 555.4844 81.140625Q554.9531 81.140625 554.53125 80.921875Q554.1094 80.6875 553.84375 80.359375L553.84375 83.390625L552.7969 83.390625ZM553.75 77.921875Q553.75 79.125 554.2344 79.703125Q554.71875 80.265625 555.40625 80.265625Q556.1094 80.265625 556.6094 79.671875Q557.1094 79.078125 557.1094 77.828125Q557.1094 76.640625 556.625 76.0625Q556.1406 75.46875 555.4531 75.46875Q554.78125 75.46875 554.2656 76.09375Q553.75 76.71875 553.75 77.921875ZM559.5 78.734375L560.5625 78.59375Q560.7344 79.484375 561.1719 79.890625Q561.6094 80.28125 562.2344 80.28125Q562.9844 80.28125 563.5 79.765625Q564.0156 79.25 564.0156 78.484375Q564.0156 77.765625 563.53125 77.296875Q563.0625 76.8125 562.3281 76.8125Q562.03125 76.8125 561.5781 76.9375L561.7031 76.0Q561.8125 76.015625 561.875 76.015625Q562.5469 76.015625 563.0781 75.671875Q563.625 75.3125 563.625 74.578125Q563.625 74.0 563.2344 73.625Q562.84375 73.234375 562.21875 73.234375Q561.6094 73.234375 561.1875 73.625Q560.78125 74.015625 560.6719 74.78125L559.6094 74.59375Q559.7969 73.546875 560.4844 72.96875Q561.1719 72.375 562.1875 72.375Q562.8906 72.375 563.4844 72.6875Q564.0781 72.984375 564.3906 73.5Q564.7031 74.015625 564.7031 74.609375Q564.7031 75.15625 564.40625 75.625Q564.1094 76.078125 563.53125 76.34375Q564.28125 76.515625 564.7031 77.078125Q565.125 77.625 565.125 78.46875Q565.125 79.59375 564.2969 80.375Q563.4844 81.15625 562.2344 81.15625Q561.1094 81.15625 560.3594 80.484375Q559.6094 79.796875 559.5 78.734375Z" fill-rule="nonzero"/><path fill="#e06666" d="M517.0 101.0C517.0 104.313705 514.3137 107.0 511.0 107.0C507.68628 107.0 505.0 104.313705 505.0 101.0C505.0 97.686295 507.68628 95.0 511.0 95.0C514.3137 95.0 517.0 97.686295 517.0 101.0Z" fill-rule="nonzero"/><path fill="#1a1a1a" d="M529.9531 101.625L529.9531 100.625L533.5781 100.609375L533.5781 103.796875Q532.75 104.46875 531.8594 104.8125Q530.96875 105.140625 530.03125 105.140625Q528.7656 105.140625 527.71875 104.609375Q526.6875 104.0625 526.15625 103.046875Q525.6406 102.015625 525.6406 100.75Q525.6406 99.484375 526.15625 98.40625Q526.6875 97.3125 527.6719 96.796875Q528.65625 96.265625 529.9375 96.265625Q530.875 96.265625 531.625 96.5625Q532.375 96.859375 532.7969 97.40625Q533.2344 97.9375 533.4531 98.8125L532.4375 99.09375Q532.2344 98.4375 531.9375 98.0625Q531.65625 97.6875 531.125 97.46875Q530.59375 97.234375 529.9531 97.234375Q529.1719 97.234375 528.59375 97.46875Q528.03125 97.703125 527.6719 98.09375Q527.3281 98.484375 527.1406 98.953125Q526.8125 99.75 526.8125 100.671875Q526.8125 101.828125 527.2031 102.609375Q527.6094 103.375 528.3594 103.75Q529.1094 104.125 529.96875 104.125Q530.7031 104.125 531.40625 103.84375Q532.1094 103.546875 532.46875 103.234375L532.46875 101.625L529.9531 101.625ZM534.78125 105.0L534.78125 98.78125L535.7344 98.78125L535.7344 99.71875Q536.09375 99.0625 536.3906 98.859375Q536.7031 98.640625 537.0781 98.640625Q537.6094 98.640625 538.15625 98.96875L537.7969 99.953125Q537.40625 99.71875 537.03125 99.71875Q536.6719 99.71875 536.3906 99.9375Q536.125 100.140625 536.0156 100.515625Q535.8281 101.078125 535.8281 101.734375L535.8281 105.0L534.78125 105.0ZM538.40625 101.890625Q538.40625 100.15625 539.3594 99.328125Q540.15625 98.640625 541.3125 98.640625Q542.59375 98.640625 543.40625 99.484375Q544.2344 100.3125 544.2344 101.796875Q544.2344 103.0 543.875 103.6875Q543.5156 104.375 542.8125 104.765625Q542.125 105.140625 541.3125 105.140625Q540.0156 105.140625 539.2031 104.3125Q538.40625 103.46875 538.40625 101.890625ZM539.4844 101.890625Q539.4844 103.078125 540.0 103.671875Q540.53125 104.265625 541.3125 104.265625Q542.1094 104.265625 542.625 103.671875Q543.1406 103.078125 543.1406 101.859375Q543.1406 100.703125 542.6094 100.109375Q542.09375 99.515625 541.3125 99.515625Q540.53125 99.515625 540.0 100.109375Q539.4844 100.6875 539.4844 101.890625ZM549.875 105.0L549.875 104.078125Q549.1406 105.140625 547.8906 105.140625Q547.34375 105.140625 546.8594 104.9375Q546.3906 104.71875 546.15625 104.40625Q545.9219 104.078125 545.8281 103.609375Q545.7656 103.3125 545.7656 102.625L545.7656 98.78125L546.8281 98.78125L546.8281 102.234375Q546.8281 103.046875 546.8906 103.34375Q546.9844 103.75 547.2969 104.0Q547.625 104.234375 548.1094 104.234375Q548.5781 104.234375 548.9844 104.0Q549.40625 103.75 549.5781 103.328125Q549.7656 102.90625 549.7656 102.109375L549.7656 98.78125L550.8125 98.78125L550.8125 105.0L549.875 105.0ZM552.7969 107.390625L552.7969 98.78125L553.75 98.78125L553.75 99.578125Q554.09375 99.109375 554.5156 98.875Q554.9531 98.640625 555.5625 98.640625Q556.3594 98.640625 556.96875 99.046875Q557.5781 99.453125 557.875 100.203125Q558.1875 100.953125 558.1875 101.84375Q558.1875 102.796875 557.84375 103.5625Q557.5156 104.328125 556.8594 104.734375Q556.2031 105.140625 555.4844 105.140625Q554.9531 105.140625 554.53125 104.921875Q554.1094 104.6875 553.84375 104.359375L553.84375 107.390625L552.7969 107.390625ZM553.75 101.921875Q553.75 103.125 554.2344 103.703125Q554.71875 104.265625 555.40625 104.265625Q556.1094 104.265625 556.6094 103.671875Q557.1094 103.078125 557.1094 101.828125Q557.1094 100.640625 556.625 100.0625Q556.1406 99.46875 555.4531 99.46875Q554.78125 99.46875 554.2656 100.09375Q553.75 100.71875 553.75 101.921875ZM562.875 105.0L562.875 102.9375L559.15625 102.9375L559.15625 101.96875L563.0781 96.40625L563.9375 96.40625L563.9375 101.96875L565.09375 101.96875L565.09375 102.9375L563.9375 102.9375L563.9375 105.0L562.875 105.0ZM562.875 101.96875L562.875 98.109375L560.1875 101.96875L562.875 101.96875Z" fill-rule="nonzero"/><path fill="#6d9eeb" d="M517.0 125.0C517.0 128.3137 514.3137 131.0 511.0 131.0C507.68628 131.0 505.0 128.3137 505.0 125.0C505.0 121.686295 507.68628 119.0 511.0 119.0C514.3137 119.0 517.0 121.686295 517.0 125.0Z" fill-rule="nonzero"/><path fill="#1a1a1a" d="M529.9531 125.625L529.9531 124.625L533.5781 124.609375L533.5781 127.796875Q532.75 128.46875 531.8594 128.8125Q530.96875 129.14062 530.03125 129.14062Q528.7656 129.14062 527.71875 128.60938Q526.6875 128.0625 526.15625 127.046875Q525.6406 126.015625 525.6406 124.75Q525.6406 123.484375 526.15625 122.40625Q526.6875 121.3125 527.6719 120.796875Q528.65625 120.265625 529.9375 120.265625Q530.875 120.265625 531.625 120.5625Q532.375 120.859375 532.7969 121.40625Q533.2344 121.9375 533.4531 122.8125L532.4375 123.09375Q532.2344 122.4375 531.9375 122.0625Q531.65625 121.6875 531.125 121.46875Q530.59375 121.234375 529.9531 121.234375Q529.1719 121.234375 528.59375 121.46875Q528.03125 121.703125 527.6719 122.09375Q527.3281 122.484375 527.1406 122.953125Q526.8125 123.75 526.8125 124.671875Q526.8125 125.828125 527.2031 126.609375Q527.6094 127.375 528.3594 127.75Q529.1094 128.125 529.96875 128.125Q530.7031 128.125 531.40625 127.84375Q532.1094 127.546875 532.46875 127.234375L532.46875 125.625L529.9531 125.625ZM534.78125 129.0L534.78125 122.78125L535.7344 122.78125L535.7344 123.71875Q536.09375 123.0625 536.3906 122.859375Q536.7031 122.640625 537.0781 122.640625Q537.6094 122.640625 538.15625 122.96875L537.7969 123.953125Q537.40625 123.71875 537.03125 123.71875Q536.6719 123.71875 536.3906 123.9375Q536.125 124.140625 536.0156 124.515625Q535.8281 125.078125 535.8281 125.734375L535.8281 129.0L534.78125 129.0ZM538.40625 125.890625Q538.40625 124.15625 539.3594 123.328125Q540.15625 122.640625 541.3125 122.640625Q542.59375 122.640625 543.40625 123.484375Q544.2344 124.3125 544.2344 125.796875Q544.2344 127.0 543.875 127.6875Q543.5156 128.375 542.8125 128.76562Q542.125 129.14062 541.3125 129.14062Q540.0156 129.14062 539.2031 128.3125Q538.40625 127.46875 538.40625 125.890625ZM539.4844 125.890625Q539.4844 127.078125 540.0 127.671875Q540.53125 128.26562 541.3125 128.26562Q542.1094 128.26562 542.625 127.671875Q543.1406 127.078125 543.1406 125.859375Q543.1406 124.703125 542.6094 124.109375Q542.09375 123.515625 541.3125 123.515625Q540.53125 123.515625 540.0 124.109375Q539.4844 124.6875 539.4844 125.890625ZM549.875 129.0L549.875 128.07812Q549.1406 129.14062 547.8906 129.14062Q547.34375 129.14062 546.8594 128.9375Q546.3906 128.71875 546.15625 128.40625Q545.9219 128.07812 545.8281 127.609375Q545.7656 127.3125 545.7656 126.625L545.7656 122.78125L546.8281 122.78125L546.8281 126.234375Q546.8281 127.046875 546.8906 127.34375Q546.9844 127.75 547.2969 128.0Q547.625 128.23438 548.1094 128.23438Q548.5781 128.23438 548.9844 128.0Q549.40625 127.75 549.5781 127.328125Q549.7656 126.90625 549.7656 126.109375L549.7656 122.78125L550.8125 122.78125L550.8125 129.0L549.875 129.0ZM552.7969 131.39062L552.7969 122.78125L553.75 122.78125L553.75 123.578125Q554.09375 123.109375 554.5156 122.875Q554.9531 122.640625 555.5625 122.640625Q556.3594 122.640625 556.96875 123.046875Q557.5781 123.453125 557.875 124.203125Q558.1875 124.953125 558.1875 125.84375Q558.1875 126.796875 557.84375 127.5625Q557.5156 128.32812 556.8594 128.73438Q556.2031 129.14062 555.4844 129.14062Q554.9531 129.14062 554.53125 128.92188Q554.1094 128.6875 553.84375 128.35938L553.84375 131.39062L552.7969 131.39062ZM553.75 125.921875Q553.75 127.125 554.2344 127.703125Q554.71875 128.26562 555.40625 128.26562Q556.1094 128.26562 556.6094 127.671875Q557.1094 127.078125 557.1094 125.828125Q557.1094 124.640625 556.625 124.0625Q556.1406 123.46875 555.4531 123.46875Q554.78125 123.46875 554.2656 124.09375Q553.75 124.71875 553.75 125.921875ZM559.5 126.75L560.6094 126.65625Q560.7344 127.46875 561.1719 127.875Q561.625 128.28125 562.2656 128.28125Q563.0156 128.28125 563.5469 127.703125Q564.0781 127.125 564.0781 126.1875Q564.0781 125.28125 563.5625 124.765625Q563.0625 124.234375 562.2344 124.234375Q561.7344 124.234375 561.3125 124.46875Q560.90625 124.703125 560.6719 125.0625L559.6875 124.9375L560.5156 120.53125L564.7969 120.53125L564.7969 121.53125L561.3594 121.53125L560.90625 123.84375Q561.6719 123.296875 562.5156 123.296875Q563.6406 123.296875 564.40625 124.078125Q565.1875 124.859375 565.1875 126.09375Q565.1875 127.25 564.5156 128.10938Q563.6875 129.14062 562.2656 129.14062Q561.09375 129.14062 560.34375 128.48438Q559.6094 127.828125 559.5 126.75Z" fill-rule="nonzero"/><path fill="#cc4125" d="M517.0 149.0C517.0 152.3137 514.3137 155.0 511.0 155.0C507.68628 155.0 505.0 152.3137 505.0 149.0C505.0 145.6863 507.68628 143.0 511.0 143.0C514.3137 143.0 517.0 145.6863 517.0 149.0Z" fill-rule="nonzero"/><path fill="#1a1a1a" d="M529.9531 149.625L529.9531 148.625L533.5781 148.60938L533.5781 151.79688Q532.75 152.46875 531.8594 152.8125Q530.96875 153.14062 530.03125 153.14062Q528.7656 153.14062 527.71875 152.60938Q526.6875 152.0625 526.15625 151.04688Q525.6406 150.01562 525.6406 148.75Q525.6406 147.48438 526.15625 146.40625Q526.6875 145.3125 527.6719 144.79688Q528.65625 144.26562 529.9375 144.26562Q530.875 144.26562 531.625 144.5625Q532.375 144.85938 532.7969 145.40625Q533.2344 145.9375 533.4531 146.8125L532.4375 147.09375Q532.2344 146.4375 531.9375 146.0625Q531.65625 145.6875 531.125 145.46875Q530.59375 145.23438 529.9531 145.23438Q529.1719 145.23438 528.59375 145.46875Q528.03125 145.70312 527.6719 146.09375Q527.3281 146.48438 527.1406 146.95312Q526.8125 147.75 526.8125 148.67188Q526.8125 149.82812 527.2031 150.60938Q527.6094 151.375 528.3594 151.75Q529.1094 152.125 529.96875 152.125Q530.7031 152.125 531.40625 151.84375Q532.1094 151.54688 532.46875 151.23438L532.46875 149.625L529.9531 149.625ZM534.78125 153.0L534.78125 146.78125L535.7344 146.78125L535.7344 147.71875Q536.09375 147.0625 536.3906 146.85938Q536.7031 146.64062 537.0781 146.64062Q537.6094 146.64062 538.15625 146.96875L537.7969 147.95312Q537.40625 147.71875 537.03125 147.71875Q536.6719 147.71875 536.3906 147.9375Q536.125 148.14062 536.0156 148.51562Q535.8281 149.07812 535.8281 149.73438L535.8281 153.0L534.78125 153.0ZM538.40625 149.89062Q538.40625 148.15625 539.3594 147.32812Q540.15625 146.64062 541.3125 146.64062Q542.59375 146.64062 543.40625 147.48438Q544.2344 148.3125 544.2344 149.79688Q544.2344 151.0 543.875 151.6875Q543.5156 152.375 542.8125 152.76562Q542.125 153.14062 541.3125 153.14062Q540.0156 153.14062 539.2031 152.3125Q538.40625 151.46875 538.40625 149.89062ZM539.4844 149.89062Q539.4844 151.07812 540.0 151.67188Q540.53125 152.26562 541.3125 152.26562Q542.1094 152.26562 542.625 151.67188Q543.1406 151.07812 543.1406 149.85938Q543.1406 148.70312 542.6094 148.10938Q542.09375 147.51562 541.3125 147.51562Q540.53125 147.51562 540.0 148.10938Q539.4844 148.6875 539.4844 149.89062ZM549.875 153.0L549.875 152.07812Q549.1406 153.14062 547.8906 153.14062Q547.34375 153.14062 546.8594 152.9375Q546.3906 152.71875 546.15625 152.40625Q545.9219 152.07812 545.8281 151.60938Q545.7656 151.3125 545.7656 150.625L545.7656 146.78125L546.8281 146.78125L546.8281 150.23438Q546.8281 151.04688 546.8906 151.34375Q546.9844 151.75 547.2969 152.0Q547.625 152.23438 548.1094 152.23438Q548.5781 152.23438 548.9844 152.0Q549.40625 151.75 549.5781 151.32812Q549.7656 150.90625 549.7656 150.10938L549.7656 146.78125L550.8125 146.78125L550.8125 153.0L549.875 153.0ZM552.7969 155.39062L552.7969 146.78125L553.75 146.78125L553.75 147.57812Q554.09375 147.10938 554.5156 146.875Q554.9531 146.64062 555.5625 146.64062Q556.3594 146.64062 556.96875 147.04688Q557.5781 147.45312 557.875 148.20312Q558.1875 148.95312 558.1875 149.84375Q558.1875 150.79688 557.84375 151.5625Q557.5156 152.32812 556.8594 152.73438Q556.2031 153.14062 555.4844 153.14062Q554.9531 153.14062 554.53125 152.92188Q554.1094 152.6875 553.84375 152.35938L553.84375 155.39062L552.7969 155.39062ZM553.75 149.92188Q553.75 151.125 554.2344 151.70312Q554.71875 152.26562 555.40625 152.26562Q556.1094 152.26562 556.6094 151.67188Q557.1094 151.07812 557.1094 149.82812Q557.1094 148.64062 556.625 148.0625Q556.1406 147.46875 555.4531 147.46875Q554.78125 147.46875 554.2656 148.09375Q553.75 148.71875 553.75 149.92188ZM564.96875 146.51562L563.9219 146.59375Q563.78125 145.96875 563.53125 145.6875Q563.09375 145.23438 562.46875 145.23438Q561.96875 145.23438 561.5781 145.51562Q561.09375 145.89062 560.7969 146.59375Q560.5156 147.28125 560.5 148.5625Q560.875 147.98438 561.4219 147.70312Q561.9844 147.42188 562.59375 147.42188Q563.6406 147.42188 564.375 148.20312Q565.125 148.98438 565.125 150.20312Q565.125 151.01562 564.7656 151.71875Q564.4219 152.40625 563.8125 152.78125Q563.2031 153.14062 562.4375 153.14062Q561.1094 153.14062 560.28125 152.17188Q559.4531 151.20312 559.4531 148.98438Q559.4531 146.48438 560.375 145.35938Q561.1719 144.375 562.53125 144.375Q563.5469 144.375 564.1875 144.95312Q564.84375 145.51562 564.96875 146.51562ZM560.6719 150.21875Q560.6719 150.76562 560.8906 151.26562Q561.125 151.75 561.53125 152.01562Q561.9531 152.28125 562.4219 152.28125Q563.0781 152.28125 563.5625 151.75Q564.0469 151.20312 564.0469 150.28125Q564.0469 149.39062 563.5625 148.875Q563.09375 148.35938 562.375 148.35938Q561.65625 148.35938 561.15625 148.875Q560.6719 149.39062 560.6719 150.21875Z" fill-rule="nonzero"/></svg>